{"title":"The.Rachel.Maddow.Show.2013.05.10.x264.mkv","uid":8461858,"size":268878604,"categoryP":"video","categoryS":"tv_shows","magnet":"?xt=urn:btih:0f7f95db700a580c1258f2cc41d0195b5c89d144&amp;dn=The.Rachel.Maddow.Show.2013.05.10.x264.mkv&amp;tr=udp%3A%2F%2Ftracker.openbittorrent.com%3A80&amp;tr=udp%3A%2F%2Fopen.demonii.com%3A1337&amp;tr=udp%3A%2F%2Ftracker.coppersurfer.tk%3A6969&amp;tr=udp%3A%2F%2Fexodus.desync.com%3A6969","seeders":0,"leechers":0,"uploader":"eeuropean2000","files":2,"time":1368252188,"description":"The Rachel Maddow Show - mkv\nMay 10  - 2013\n\nI left a few seconds of the show that follows Rachel\nJust to explain why she ends Friday shows with - you are going to prison\n\nPlus 3 minutes from tonights NBC news\n\n\n\nVideo\nSource \t\t\t\t : Fuzzy SDTV\nID                               : 1\nFormat                           : AVC\nFormat/Info                      : Advanced Video Codec\nFormat profile                   : &lt;a class=&quot;__cf_email__&quot; href=&quot;/cdn-cgi/l/email-protection&quot; data-cfemail=&quot;f4bc9d939cb4b8c7dac4&quot;&gt;[email&amp;#160;protected]&lt;/a&gt;&lt;script data-cfhash='f9e31' type=&quot;text/javascript&quot;&gt;\n/* &lt;![CDATA[ */!function(){try{var t=&quot;currentScript&quot;in document?document.currentScript:function(){for(var t=document.getElementsByTagName(&quot;script&quot;),e=t.length;e--;)if(t[e].getAttribute(&quot;data-cfhash&quot;))return t[e]}();if(t&amp;&amp;t.previousSibling){var e,r,n,i,c=t.previousSibling,a=c.getAttribute(&quot;data-cfemail&quot;);if(a){for(e=&quot;&quot;,r=parseInt(a.substr(0,2),16),n=2;a.length-n;n+=2)i=parseInt(a.substr(n,2),16)^r,e+=String.fromCharCode(i);e=document.createTextNode(e),c.parentNode.replaceChild(e,c)}t.parentNode.removeChild(t);}}catch(u){}}()/* ]]&gt; */&lt;/script&gt;\nFormat settings, CABAC           : Yes\nFormat settings, ReFrames        : 4 frames\nCodec ID                         : V_MPEG4/ISO/AVC\nDuration                         : 43mn 24s\nBit rate                         : 550 Kbps\nWidth                            : 624 pixels\nHeight                           : 352 pixels\nDisplay aspect ratio             : 16:9\nFrame rate                       : 29.970 fps\nColor space                      : YUV\nChroma subsampling               : 4:2:0\nBit depth                        : 8 bits\nScan type                        : Progressive\nBits/(Pixel*Frame)               : 0.084\nStream size                      : 164 MiB (83%)\nWriting library                  : x264 core 120\n\n\nAudio\nID                               : 2\nFormat                           : Vorbis\nFormat settings, Floor           : 1\nCodec ID                         : A_VORBIS\nDuration                         : 43mn 24s\nBit rate mode                    : Variable\nBit rate                         : 96.0 Kbps\nChannel(s)                       : 2 channels\nSampling rate                    : 48.0 KHz\nCompression mode                 : Lossy\nStream size                      : 29.8 MiB (15%)\nWriting library                  : aoTuV 20110424 (UTC 2011-04-24)\nLanguage                         : un\nDefault                          : Yes\nForced                           : No\nWriting application              : HandBrake","torrent":{"xt":"urn:btih:0f7f95db700a580c1258f2cc41d0195b5c89d144","amp;dn":"The.Rachel.Maddow.Show.2013.05.10.x264.mkv","amp;tr":["udp%3A%2F%2Ftracker.openbittorrent.com%3A80","udp%3A%2F%2Fopen.demonii.com%3A1337","udp%3A%2F%2Ftracker.coppersurfer.tk%3A6969","udp%3A%2F%2Fexodus.desync.com%3A6969"],"infoHash":"0f7f95db700a580c1258f2cc41d0195b5c89d144","infoHashBuffer":{"type":"Buffer","data":[15,127,149,219,112,10,88,12,18,88,242,204,65,208,25,91,92,137,209,68]},"announce":[],"urlList":[]}}